<?xml version="1.0" standalone="no"?>
<!DOCTYPE svg PUBLIC "-//W3C//DTD SVG 20010904//EN"
 "http://www.w3.org/TR/2001/REC-SVG-20010904/DTD/svg10.dtd">
<svg version="1.0" xmlns="http://www.w3.org/2000/svg"
 width="260.000000pt" height="260.000000pt" viewBox="0 0 260.000000 260.000000"
 preserveAspectRatio="xMidYMid meet">
<metadata>
Created by potrace 1.11, written by Peter Selinger 2001-2013
</metadata>
<g transform="translate(0.000000,260.000000) scale(0.100000,-0.100000)"
fill="#000000" stroke="none">
<path d="M712 1799 c-19 -7 -17 47 -26 -589 -4 -250 -9 -552 -11 -670 -2 -118
-4 -255 -5 -305 -1 -50 -1 -102 -1 -117 l1 -28 135 0 c74 0 136 3 136 8 3 18
17 575 24 945 1 75 4 140 7 143 3 3 9 -17 12 -43 4 -26 16 -97 28 -158 24
-132 21 -112 48 -260 12 -66 30 -167 41 -225 11 -58 22 -118 25 -135 2 -16 15
-84 27 -150 l23 -120 120 -3 120 -3 12 68 c6 37 14 84 17 103 3 19 10 58 15
85 5 28 12 68 16 90 3 22 7 47 9 55 3 8 12 56 20 105 17 98 62 355 70 395 12
69 15 89 21 133 10 73 19 63 20 -21 1 -43 5 -201 9 -352 9 -322 13 -499 14
-592 l1 -68 135 0 c128 0 135 1 136 20 3 65 1 175 -16 1120 -2 107 -5 277 -6
378 -1 158 -3 184 -18 190 -16 8 -368 8 -376 1 -2 -3 -20 -85 -40 -183 -20
-99 -39 -189 -41 -200 -8 -35 -35 -170 -40 -196 -3 -14 -7 -32 -9 -40 -3 -8
-7 -33 -10 -55 -4 -22 -8 -48 -11 -57 -3 -9 -7 -27 -9 -40 -23 -123 -40 -196
-46 -190 -4 4 -10 25 -13 47 -4 22 -13 72 -21 110 -8 39 -17 86 -20 105 -3 19
-12 67 -20 105 -8 39 -17 86 -20 105 -3 19 -19 105 -36 190 -16 85 -35 184
-41 220 -6 36 -15 69 -19 74 -9 10 -360 14 -387 5z"/>
<path d="M2150 1641 c0 -86 3 -120 13 -123 6 -2 84 -4 172 -4 l160 1 1 123 2
122 -174 0 -174 0 0 -119z"/>
<path d="M2171 1308 c-18 -6 -19 -36 -19 -612 l0 -606 172 0 173 0 0 610 c0
435 -3 610 -11 611 -81 4 -302 2 -315 -3z"/>
</g>
</svg>
